<svg version="1.0" xmlns="http://www.w3.org/2000/svg"
 width="448.000000pt" height="512.000000pt" viewBox="0 0 448.000000 512.000000"
 preserveAspectRatio="xMidYMid meet">

<g transform="translate(0.000000,512.000000) scale(0.100000,-0.100000)"
fill="white" stroke="none">
<path d="M245 4471 c-90 -22 -173 -90 -215 -176 -35 -71 -35 -197 0 -270 31
-63 91 -123 155 -155 l50 -25 2005 0 2005 0 50 25 c64 31 124 92 155 155 19
41 24 66 24 135 1 78 -2 90 -33 148 -37 69 -79 109 -151 144 l-45 23 -1985 2
c-1092 0 -1998 -2 -2015 -6z"/>
<path d="M220 2863 c-142 -49 -230 -183 -217 -328 11 -116 78 -214 182 -265
l50 -25 2005 0 2005 0 50 25 c64 31 124 92 155 155 34 72 34 198 0 270 -31 63
-91 124 -155 155 l-50 25 -1990 2 c-1790 2 -1995 1 -2035 -14z"/>
<path d="M220 1263 c-142 -49 -230 -183 -217 -328 11 -116 78 -214 182 -265
l50 -25 2005 0 2005 0 50 25 c64 31 124 92 155 155 34 72 34 198 0 270 -31 63
-91 124 -155 155 l-50 25 -1990 2 c-1790 2 -1995 1 -2035 -14z"/>
</g>
</svg>
