<?xml version="1.0" standalone="no"?>
<!DOCTYPE svg PUBLIC "-//W3C//DTD SVG 20010904//EN"
 "http://www.w3.org/TR/2001/REC-SVG-20010904/DTD/svg10.dtd">
<svg version="1.0" xmlns="http://www.w3.org/2000/svg"
 width="320.000000pt" height="512.000000pt" viewBox="0 0 320.000000 512.000000"
 preserveAspectRatio="xMidYMid meet">

<g transform="translate(0.000000,512.000000) scale(0.100000,-0.100000)"
fill="white" stroke="none">
<path d="M220 4144 c-142 -52 -229 -183 -218 -327 10 -122 3 -114 597 -709
l546 -548 -546 -547 c-430 -432 -551 -559 -570 -598 -34 -72 -34 -199 1 -270
31 -64 91 -124 155 -155 71 -35 198 -35 270 -1 39 19 166 140 597 570 l548
546 548 -546 c594 -593 587 -587 708 -597 126 -10 240 53 303 168 33 60 36 71
36 150 -1 143 16 122 -598 737 l-542 543 546 547 c430 432 551 559 570 598 34
72 34 199 -1 270 -31 64 -91 124 -155 155 -41 20 -66 24 -135 24 -143 0 -121
18 -737 -597 l-543 -542 -547 546 c-441 439 -558 550 -598 569 -66 30 -173 37
-235 14z"/>
</g>
</svg>
